<svg width="175" height="113" viewBox="0 0 175 113" fill="none" xmlns="http://www.w3.org/2000/svg">
<rect width="16.447" height="120.323" rx="8.22351" transform="matrix(0.854498 0.519455 -0.510632 0.8598 101.582 0)" fill="#D9D9D9" fill-opacity="0.4"/>
<rect width="16.447" height="120.323" rx="8.22351" transform="matrix(0.854498 0.519455 -0.510632 0.8598 81.7942 0)" fill="#D9D9D9" fill-opacity="0.5"/>
<rect width="16.447" height="120.323" rx="8.22351" transform="matrix(0.854498 0.519455 -0.510632 0.8598 61.4408 0.572266)" fill="#D9D9D9" fill-opacity="0.6"/>
<rect width="16.447" height="120.323" rx="8.22351" transform="matrix(0.854498 0.519455 -0.510632 0.8598 121.37 0)" fill="#D9D9D9" fill-opacity="0.3"/>
<path d="M136.959 7.07057C139.278 3.1656 144.304 1.91252 148.185 4.27174C152.066 6.63096 153.332 11.7091 151.013 15.6141L97.9703 104.927C95.6512 108.832 90.6251 110.085 86.7442 107.725C82.8633 105.366 81.5972 100.288 83.9164 96.3831L136.959 7.07057Z" fill="#D9D9D9" fill-opacity="0.2"/>
<path d="M156.747 7.64284C159.066 3.73787 164.092 2.48479 167.973 4.84401C171.854 7.20323 173.12 12.2814 170.801 16.1863L117.758 105.499C115.439 109.404 110.413 110.657 106.532 108.298C102.651 105.938 101.385 100.86 103.704 96.9554L156.747 7.64284Z" fill="#D9D9D9" fill-opacity="0.15"/>
<mask id="mask0_16_621" style="mask-type:luminance" maskUnits="userSpaceOnUse" x="27" y="10" width="119" height="77">
<path d="M27.8533 10.5244H145.451V86.9068H27.8533V10.5244Z" fill="white"/>
</mask>
<g mask="url(#mask0_16_621)">
<path d="M86.6209 13.7806C94.2106 13.7806 101.566 14.7349 108.476 16.6459C115.102 18.4694 121.048 21.0518 126.123 24.3494C136.253 30.9262 141.82 39.5426 141.82 48.6121C141.82 57.6839 136.253 66.3234 126.123 72.8771C121.048 76.1747 115.102 78.7571 108.476 80.5807C101.566 82.4686 94.2106 83.446 86.6209 83.446C79.0288 83.446 71.6732 82.4916 64.7658 80.5807C58.1373 78.7571 52.191 76.1747 47.1163 72.8771C36.9644 66.3234 31.3941 57.7069 31.3941 48.6121C31.3941 39.5196 36.9644 30.9262 47.0914 24.3494C52.1686 21.0518 58.1149 18.4694 64.7409 16.6459C71.6732 14.7349 79.0288 13.7806 86.6209 13.7806ZM86.6209 10.5244C54.1656 10.5244 27.8707 27.5826 27.8707 48.6121C27.8707 69.644 54.1656 86.6998 86.6209 86.6998C119.074 86.6998 145.371 69.644 145.371 48.6121C145.371 27.5826 119.074 10.5244 86.6209 10.5244Z" fill="#0EADEE"/>
</g>
<path d="M57.3604 60.6009C66.3918 60.6009 70.6996 55.7489 70.9884 49.7608V49.609H65.5277V49.7976C65.2812 53.9299 62.1637 56.241 57.4002 56.241C52.1064 56.241 49.1507 52.8675 49.1507 46.385V45.5135C49.1507 39.031 52.1064 35.6966 57.4425 35.6966C62.6144 35.6966 65.1592 38.6907 65.4879 42.14V42.2527H70.9062V42.1032C70.6174 36.1888 66.2673 31.3367 57.4002 31.3367C48.4535 31.3367 43.568 36.2646 43.568 45.7044V46.1965C43.568 55.673 48.4535 60.6009 57.3604 60.6009Z" fill="#04AFEF" fill-opacity="0.4"/>
<path d="M76.3658 60.0328H88.8858C98.5721 60.0328 102.76 55.1807 102.76 46.0813V45.6283C102.76 36.568 98.4078 31.8677 88.8435 31.8677H76.3658V60.0328ZM81.8664 55.7878V36.1127H88.0641C94.0975 36.1127 97.2175 38.7273 97.2175 45.3247V46.3848C97.2175 53.1341 94.0975 55.7878 88.0641 55.7878H81.8664Z" fill="#04AFEF" fill-opacity="0.4"/>
<path d="M105.139 60.0328H111.051L113.473 53.5135H126.526L128.949 60.0328H134.86L123.57 31.8677H116.387L105.139 60.0328ZM114.95 49.5329L119.22 37.9707L119.957 35.8091H120.04L120.779 37.9707L125.05 49.5329H114.95Z" fill="#04AFEF" fill-opacity="0.4"/>
<path d="M55.546 58.9254C64.5774 58.9254 68.8852 54.0733 69.1741 48.0853V47.9335H63.7134V48.122C63.4669 52.2544 60.3493 54.5654 55.5859 54.5654C50.292 54.5654 47.3364 51.192 47.3364 44.7095V43.838C47.3364 37.3555 50.292 34.0211 55.6282 34.0211C60.8 34.0211 63.3449 37.0151 63.6736 40.4645V40.5772H69.0919V40.4277C68.8031 34.5132 64.4529 29.6611 55.5859 29.6611C46.6391 29.6611 41.7537 34.5891 41.7537 44.0288V44.5209C41.7537 53.9974 46.6391 58.9254 55.546 58.9254Z" fill="#13256B"/>
<path d="M74.5516 58.3572H87.0716C96.7579 58.3572 100.946 53.5051 100.946 44.4058V43.9527C100.946 34.8925 96.5935 30.1921 87.0293 30.1921H74.5516V58.3572ZM80.0522 54.1122V34.4371H86.2499C92.2833 34.4371 95.4033 37.0517 95.4033 43.6492V44.7093C95.4033 51.4585 92.2833 54.1122 86.2499 54.1122H80.0522Z" fill="#13256B"/>
<path d="M103.325 58.3572H109.236L111.659 51.838H124.712L127.135 58.3572H133.046L121.756 30.1921H114.572L103.325 58.3572ZM113.136 47.8574L117.406 36.2952L118.143 34.1336H118.225L118.965 36.2952L123.235 47.8574H113.136Z" fill="#13256B"/>
<path d="M59.4634 69.559H62.2373C64.3837 69.559 65.3125 68.4828 65.3125 66.4661V66.3672C65.3125 64.3574 64.3489 63.3157 62.2273 63.3157H59.4634V69.559ZM60.681 68.6185V64.2585H62.0555C63.3927 64.2585 64.0849 64.838 64.0849 66.2982V66.5351C64.0849 68.0298 63.3927 68.6185 62.0555 68.6185H60.681Z" fill="#FF00FF"/>
<path d="M68.6506 69.6856C70.2517 69.6856 71.061 68.9382 71.1705 67.8528H70.06C69.9703 68.4254 69.552 68.7772 68.668 68.7772C67.8239 68.7772 67.3309 68.3081 67.2587 67.3584H71.2079V66.979C71.2079 65.3509 70.3513 64.4771 68.688 64.4771C67.0321 64.4771 66.1207 65.4176 66.1207 66.9882V67.1147C66.1207 68.7358 67.0221 69.6856 68.6506 69.6856ZM67.2686 66.6363C67.3782 65.7694 67.8787 65.3831 68.678 65.3831C69.5869 65.3831 70.0351 65.8545 70.0799 66.6363H67.2686Z" fill="#FF00FF"/>
<path d="M74.4 69.6764C75.9189 69.6764 76.7207 69.1222 76.7207 68.1633C76.7207 67.248 76.0484 66.8295 74.5369 66.611C73.7102 66.4846 73.2645 66.3581 73.2645 65.8959V65.8867C73.2645 65.544 73.5459 65.3003 74.2556 65.3003C75.1097 65.3003 75.4732 65.6613 75.5106 66.0293H76.6211C76.6112 65.2497 75.9289 64.4771 74.273 64.4771C72.7092 64.4771 72.1166 65.114 72.1166 65.9051V65.912C72.1166 66.8111 72.8188 67.1905 74.2182 67.4251C75.1644 67.5769 75.5753 67.7194 75.5753 68.2069C75.5753 68.6094 75.2292 68.8531 74.4473 68.8531C73.6281 68.8531 73.135 68.568 73.0902 67.9701H71.9896C72.0071 68.9451 72.7167 69.6764 74.4 69.6764Z" fill="#FF00FF"/>
<path d="M79.6593 69.6856C80.5059 69.6856 81.1683 69.2993 81.5069 68.6002H81.5244L81.487 69.1475V69.5591H82.615V63.1318H81.487V64.9623L81.5244 65.5602H81.5069C81.1608 64.845 80.5059 64.4771 79.6593 64.4771C78.103 64.4771 77.4656 65.551 77.4656 67.0135V67.14C77.4656 68.6255 78.103 69.6856 79.6593 69.6856ZM78.6035 67.1147V67.0733C78.6035 66.2914 78.8949 65.3831 80.0129 65.3831C81.106 65.3831 81.487 66.2225 81.487 66.9882V67.1814C81.487 67.9701 81.0786 68.7773 80.0129 68.7773C78.8949 68.7773 78.6035 67.9885 78.6035 67.1147Z" fill="#FF00FF"/>
<path d="M86.2364 69.6856C87.8375 69.6856 88.6468 68.9382 88.7564 67.8528H87.6458C87.5562 68.4254 87.1378 68.7772 86.2539 68.7772C85.4097 68.7772 84.9167 68.3081 84.8445 67.3584H88.7937V66.979C88.7937 65.3509 87.9371 64.4771 86.2738 64.4771C84.6179 64.4771 83.7065 65.4176 83.7065 66.9882V67.1147C83.7065 68.7358 84.6079 69.6856 86.2364 69.6856ZM84.8545 66.6363C84.964 65.7694 85.4645 65.3831 86.2638 65.3831C87.1727 65.3831 87.6209 65.8545 87.6657 66.6363H84.8545Z" fill="#FF00FF"/>
<path d="M93.7793 64.3827V69.559H94.8973V63.3157H93.8963C93.4432 63.7112 92.8406 63.9894 92.0786 64.1228V64.9967C92.7783 64.8955 93.3411 64.6862 93.7793 64.3827Z" fill="#FF00FF"/>
<path d="M98.7188 63.1985C96.809 63.1985 96.1267 64.2149 96.1267 65.3739C96.1267 66.3167 96.6994 67.3147 98.4549 67.3147C99.3563 67.3147 99.8568 67.0388 100.183 66.6432H100.203V67.2066C100.203 68.1885 99.7647 68.7864 98.7637 68.7864C97.7278 68.7864 97.4464 68.2644 97.4464 67.7516H96.2811C96.2811 68.66 96.8538 69.6856 98.7562 69.6856C100.656 69.6856 101.358 68.6002 101.366 67.0135V65.6429C101.366 64.2586 100.703 63.1985 98.7188 63.1985ZM97.2896 65.3739C97.2896 64.7875 97.5734 64.0976 98.7363 64.0976C99.8195 64.0976 100.193 64.7691 100.193 65.3923C100.193 66.0224 99.7572 66.5352 98.7462 66.5352C97.546 66.5352 97.2896 65.8545 97.2896 65.3739Z" fill="#FF00FF"/>
<path d="M104.852 69.6856C106.488 69.6856 107.481 69.0716 107.481 67.7861V67.7769C107.481 67.0296 107.108 66.4662 106.234 66.1994V66.1649C106.906 65.9212 107.279 65.4337 107.279 64.8128C107.279 63.847 106.405 63.1985 104.852 63.1985C103.258 63.1985 102.431 63.847 102.431 64.8128C102.431 65.4337 102.767 65.8959 103.467 66.1649V66.1994C102.613 66.4754 102.222 67.048 102.222 67.7769V67.7861C102.222 69.0716 103.186 69.6856 104.852 69.6856ZM103.45 67.7516V67.7447C103.45 66.9537 103.988 66.611 104.842 66.611C105.706 66.611 106.251 66.9537 106.251 67.7447V67.7516C106.251 68.4254 105.751 68.8025 104.852 68.8025C103.94 68.8025 103.45 68.4254 103.45 67.7516ZM103.604 64.8795C103.604 64.3414 104.06 64.0148 104.852 64.0148C105.641 64.0148 106.097 64.3414 106.097 64.8795C106.097 65.4682 105.651 65.7878 104.842 65.7878C104.05 65.7878 103.604 65.4751 103.604 64.8795Z" fill="#FF00FF"/>
<path d="M111.257 69.6856C113.184 69.6856 114.168 68.5772 114.168 66.4915V66.3834C114.168 64.3069 113.184 63.1985 111.257 63.1985C109.317 63.1985 108.336 64.3069 108.336 66.3834V66.4915C108.336 68.5772 109.317 69.6856 111.257 69.6856ZM109.563 66.5352V66.342C109.563 64.9209 110.109 64.1643 111.257 64.1643C112.392 64.1643 112.937 64.9209 112.937 66.342V66.5352C112.937 67.9632 112.392 68.7266 111.257 68.7266C110.109 68.7266 109.563 67.9632 109.563 66.5352Z" fill="#FF00FF"/>
<path d="M59.4456 69.8739H62.2195C64.3659 69.8739 65.2947 68.7977 65.2947 66.781V66.6821C65.2947 64.6723 64.331 63.6306 62.2095 63.6306H59.4456V69.8739ZM60.6632 68.9334V64.5734H62.0377C63.3749 64.5734 64.0671 65.1529 64.0671 66.6132V66.85C64.0671 68.3447 63.3749 68.9334 62.0377 68.9334H60.6632Z" fill="#00FFFF"/>
<path d="M68.6327 70C70.2338 70 71.043 69.2527 71.1526 68.1673H70.042C69.9524 68.7399 69.5341 69.0917 68.6501 69.0917C67.806 69.0917 67.3129 68.6226 67.2407 67.6729H71.19V67.2934C71.19 65.6653 70.3334 64.7915 68.67 64.7915C67.0141 64.7915 66.1028 65.732 66.1028 67.3026V67.4291C66.1028 69.0503 67.0042 70 68.6327 70ZM67.2507 66.9508C67.3603 66.0839 67.8608 65.6975 68.6601 65.6975C69.5689 65.6975 70.0171 66.1689 70.062 66.9508H67.2507Z" fill="#00FFFF"/>
<path d="M74.3822 69.9908C75.9011 69.9908 76.7029 69.4366 76.7029 68.4777C76.7029 67.5625 76.0306 67.144 74.5191 66.9255C73.6924 66.799 73.2467 66.6725 73.2467 66.2103V66.2011C73.2467 65.8585 73.5281 65.6147 74.2377 65.6147C75.0918 65.6147 75.4554 65.9758 75.4927 66.3437H76.6033C76.5933 65.5642 75.9111 64.7915 74.2552 64.7915C72.6914 64.7915 72.0988 65.4285 72.0988 66.2195V66.2264C72.0988 67.1256 72.801 67.505 74.2004 67.7395C75.1466 67.8913 75.5575 68.0339 75.5575 68.5214C75.5575 68.9238 75.2114 69.1676 74.4295 69.1676C73.6103 69.1676 73.1172 68.8824 73.0724 68.2845H71.9718C71.9892 69.2596 72.6989 69.9908 74.3822 69.9908Z" fill="#00FFFF"/>
<path d="M79.6414 70.0005C80.488 70.0005 81.1503 69.6142 81.489 68.9151H81.5064L81.4691 69.4624V69.8741H82.5971V63.4468H81.4691V65.2772L81.5064 65.8751H81.489C81.1429 65.16 80.488 64.792 79.6414 64.792C78.0851 64.792 77.4476 65.8659 77.4476 67.3284V67.4549C77.4476 68.9404 78.0851 70.0005 79.6414 70.0005ZM78.5856 67.4296V67.3882C78.5856 66.6064 78.8769 65.6981 79.995 65.6981C81.0881 65.6981 81.4691 66.5374 81.4691 67.3031V67.4963C81.4691 68.2851 81.0607 69.0922 79.995 69.0922C78.8769 69.0922 78.5856 68.3035 78.5856 67.4296Z" fill="#00FFFF"/>
<path d="M86.2186 70C87.8197 70 88.629 69.2527 88.7385 68.1673H87.628C87.5383 68.7399 87.12 69.0917 86.236 69.0917C85.3919 69.0917 84.8989 68.6226 84.8267 67.6729H88.7759V67.2934C88.7759 65.6653 87.9193 64.7915 86.256 64.7915C84.6001 64.7915 83.6887 65.732 83.6887 67.3026V67.4291C83.6887 69.0503 84.5901 70 86.2186 70ZM84.8366 66.9508C84.9462 66.0839 85.4467 65.6975 86.246 65.6975C87.1549 65.6975 87.6031 66.1689 87.6479 66.9508H84.8366Z" fill="#00FFFF"/>
<path d="M93.7615 64.6976V69.8739H94.8795V63.6306H93.8785C93.4253 64.0261 92.8227 64.3044 92.0608 64.4378V65.3116C92.7605 65.2104 93.3232 65.0012 93.7615 64.6976Z" fill="#00FFFF"/>
<path d="M98.701 63.5129C96.7912 63.5129 96.1089 64.5293 96.1089 65.6883C96.1089 66.6312 96.6816 67.6292 98.4371 67.6292C99.3385 67.6292 99.839 67.3532 100.165 66.9577H100.185V67.5211C100.185 68.503 99.7468 69.1009 98.7458 69.1009C97.71 69.1009 97.4286 68.5789 97.4286 68.0661H96.2633C96.2633 68.9744 96.836 70 98.7384 70C100.638 70 101.34 68.9146 101.348 67.3279V65.9574C101.348 64.573 100.686 63.5129 98.701 63.5129ZM97.2717 65.6883C97.2717 65.1019 97.5556 64.4121 98.7185 64.4121C99.8016 64.4121 100.175 65.0835 100.175 65.7067C100.175 66.3368 99.7394 66.8496 98.7284 66.8496C97.5282 66.8496 97.2717 66.1689 97.2717 65.6883Z" fill="#00FFFF"/>
<path d="M104.834 70C106.47 70 107.463 69.386 107.463 68.1006V68.0914C107.463 67.344 107.09 66.7806 106.216 66.5139V66.4794C106.888 66.2356 107.262 65.7481 107.262 65.1272C107.262 64.1614 106.388 63.5129 104.834 63.5129C103.24 63.5129 102.413 64.1614 102.413 65.1272C102.413 65.7481 102.75 66.2103 103.449 66.4794V66.5139C102.595 66.7898 102.204 67.3624 102.204 68.0914V68.1006C102.204 69.386 103.168 70 104.834 70ZM103.432 68.0661V68.0592C103.432 67.2681 103.97 66.9255 104.824 66.9255C105.688 66.9255 106.233 67.2681 106.233 68.0592V68.0661C106.233 68.7399 105.733 69.117 104.834 69.117C103.922 69.117 103.432 68.7399 103.432 68.0661ZM103.586 65.1939C103.586 64.6558 104.042 64.3293 104.834 64.3293C105.623 64.3293 106.079 64.6558 106.079 65.1939C106.079 65.7826 105.633 66.1023 104.824 66.1023C104.032 66.1023 103.586 65.7895 103.586 65.1939Z" fill="#00FFFF"/>
<path d="M111.239 70C113.166 70 114.15 68.8916 114.15 66.8059V66.6978C114.15 64.6213 113.166 63.5129 111.239 63.5129C109.299 63.5129 108.318 64.6213 108.318 66.6978V66.8059C108.318 68.8916 109.299 70 111.239 70ZM109.546 66.8496V66.6564C109.546 65.2353 110.091 64.4788 111.239 64.4788C112.374 64.4788 112.92 65.2353 112.92 66.6564V66.8496C112.92 68.2776 112.374 69.0411 111.239 69.0411C110.091 69.0411 109.546 68.2776 109.546 66.8496Z" fill="#00FFFF"/>
<path d="M59.4545 69.7162H62.2284C64.3748 69.7162 65.3036 68.64 65.3036 66.6233V66.5244C65.3036 64.5146 64.3399 63.4729 62.2184 63.4729H59.4545V69.7162ZM60.6721 68.7757V64.4157H62.0466C63.3838 64.4157 64.076 64.9952 64.076 66.4554V66.6923C64.076 68.187 63.3838 68.7757 62.0466 68.7757H60.6721Z" fill="#13256B"/>
<path d="M68.6416 69.8428C70.2427 69.8428 71.0519 69.0954 71.1615 68.01H70.051C69.9613 68.5826 69.543 68.9345 68.659 68.9345C67.8149 68.9345 67.3219 68.4654 67.2496 67.5156H71.1989V67.1362C71.1989 65.5081 70.3423 64.6343 68.6789 64.6343C67.0231 64.6343 66.1117 65.5748 66.1117 67.1454V67.2719C66.1117 68.8931 67.0131 69.8428 68.6416 69.8428ZM67.2596 66.7936C67.3692 65.9266 67.8697 65.5403 68.669 65.5403C69.5778 65.5403 70.0261 66.0117 70.0709 66.7936H67.2596Z" fill="#13256B"/>
<path d="M74.3911 69.8336C75.91 69.8336 76.7118 69.2794 76.7118 68.3205C76.7118 67.4053 76.0395 66.9867 74.528 66.7683C73.7013 66.6418 73.2556 66.5153 73.2556 66.0531V66.0439C73.2556 65.7013 73.537 65.4575 74.2467 65.4575C75.1007 65.4575 75.4643 65.8186 75.5016 66.1865H76.6122C76.6022 65.4069 75.92 64.6343 74.2641 64.6343C72.7003 64.6343 72.1077 65.2713 72.1077 66.0623V66.0692C72.1077 66.9683 72.8099 67.3478 74.2093 67.5823C75.1555 67.7341 75.5664 67.8767 75.5664 68.3642C75.5664 68.7666 75.2203 69.0104 74.4384 69.0104C73.6192 69.0104 73.1261 68.7252 73.0813 68.1273H71.9807C71.9981 69.1023 72.7078 69.8336 74.3911 69.8336Z" fill="#13256B"/>
<path d="M79.6503 69.8428C80.4969 69.8428 81.1592 69.4565 81.4979 68.7574H81.5153L81.478 69.3047V69.7164H82.606V63.2891H81.478V65.1195L81.5153 65.7174H81.4979C81.1518 65.0022 80.4969 64.6343 79.6503 64.6343C78.094 64.6343 77.4565 65.7082 77.4565 67.1707V67.2972C77.4565 68.7827 78.094 69.8428 79.6503 69.8428ZM78.5945 67.2719V67.2305C78.5945 66.4487 78.8858 65.5403 80.0039 65.5403C81.097 65.5403 81.478 66.3797 81.478 67.1454V67.3386C81.478 68.1273 81.0696 68.9345 80.0039 68.9345C78.8858 68.9345 78.5945 68.1457 78.5945 67.2719Z" fill="#13256B"/>
<path d="M86.2275 69.8428C87.8286 69.8428 88.6379 69.0954 88.7474 68.01H87.6369C87.5472 68.5826 87.1289 68.9345 86.245 68.9345C85.4008 68.9345 84.9078 68.4654 84.8356 67.5156H88.7848V67.1362C88.7848 65.5081 87.9282 64.6343 86.2649 64.6343C84.609 64.6343 83.6976 65.5748 83.6976 67.1454V67.2719C83.6976 68.8931 84.599 69.8428 86.2275 69.8428ZM84.8455 66.7936C84.9551 65.9266 85.4556 65.5403 86.2549 65.5403C87.1638 65.5403 87.612 66.0117 87.6568 66.7936H84.8455Z" fill="#13256B"/>
<path d="M93.7703 64.5399V69.7162H94.8883V63.4729H93.8873C93.4341 63.8684 92.8315 64.1467 92.0696 64.28V65.1539C92.7693 65.0527 93.332 64.8434 93.7703 64.5399Z" fill="#13256B"/>
<path d="M98.7099 63.3557C96.8001 63.3557 96.1178 64.3721 96.1178 65.5311C96.1178 66.4739 96.6905 67.4719 98.446 67.4719C99.3474 67.4719 99.8479 67.196 100.174 66.8005H100.194V67.3639C100.194 68.3458 99.7558 68.9437 98.7548 68.9437C97.7189 68.9437 97.4375 68.4217 97.4375 67.9089H96.2722C96.2722 68.8172 96.8449 69.8428 98.7473 69.8428C100.647 69.8428 101.349 68.7574 101.357 67.1707V65.8002C101.357 64.4158 100.695 63.3557 98.7099 63.3557ZM97.2807 65.5311C97.2807 64.9447 97.5645 64.2548 98.7274 64.2548C99.8105 64.2548 100.184 64.9263 100.184 65.5495C100.184 66.1796 99.7483 66.6924 98.7373 66.6924C97.5371 66.6924 97.2807 66.0117 97.2807 65.5311Z" fill="#13256B"/>
<path d="M104.843 69.8428C106.479 69.8428 107.472 69.2288 107.472 67.9433V67.9341C107.472 67.1868 107.099 66.6234 106.225 66.3566V66.3222C106.897 66.0784 107.271 65.5909 107.271 64.97C107.271 64.0042 106.397 63.3557 104.843 63.3557C103.249 63.3557 102.423 64.0042 102.423 64.97C102.423 65.5909 102.759 66.0531 103.458 66.3222V66.3566C102.604 66.6326 102.213 67.2052 102.213 67.9341V67.9433C102.213 69.2288 103.177 69.8428 104.843 69.8428ZM103.441 67.9089V67.902C103.441 67.1109 103.979 66.7683 104.833 66.7683C105.697 66.7683 106.242 67.1109 106.242 67.902V67.9089C106.242 68.5826 105.742 68.9598 104.843 68.9598C103.932 68.9598 103.441 68.5826 103.441 67.9089ZM103.595 65.0367C103.595 64.4986 104.051 64.1721 104.843 64.1721C105.632 64.1721 106.088 64.4986 106.088 65.0367C106.088 65.6254 105.642 65.945 104.833 65.945C104.041 65.945 103.595 65.6323 103.595 65.0367Z" fill="#13256B"/>
<path d="M111.248 69.8428C113.175 69.8428 114.159 68.7344 114.159 66.6487V66.5406C114.159 64.4641 113.175 63.3557 111.248 63.3557C109.308 63.3557 108.327 64.4641 108.327 66.5406V66.6487C108.327 68.7344 109.308 69.8428 111.248 69.8428ZM109.554 66.6924V66.4992C109.554 65.0781 110.1 64.3215 111.248 64.3215C112.383 64.3215 112.929 65.0781 112.929 66.4992V66.6924C112.929 68.1204 112.383 68.8839 111.248 68.8839C110.1 68.8839 109.554 68.1204 109.554 66.6924Z" fill="#13256B"/>
<path d="M42.8237 96.1149H45.9662V95.5032H43.6156V94.3281H45.7047V93.7555H43.6156V92.6678H45.9363V92.0562H42.8237V96.1149Z" fill="#04AFEF" fill-opacity="0.4"/>
<path d="M48.1891 96.1975C49.2897 96.1975 49.9222 95.7698 49.9222 95.0109C49.9222 94.3003 49.5213 93.9301 48.2315 93.7002C47.5517 93.5806 47.3027 93.4426 47.3027 93.077V93.0724C47.3027 92.7872 47.5392 92.5573 48.1543 92.5573C48.8764 92.5573 49.083 92.9022 49.1079 93.2747H49.8575C49.8226 92.5136 49.3072 91.9778 48.1368 91.9778C47.0238 91.9778 46.5034 92.4331 46.5034 93.0609C46.5034 93.7439 46.9117 94.0612 47.9999 94.2636C48.8465 94.4314 49.1179 94.551 49.1179 95.0109C49.1179 95.3926 48.834 95.618 48.1966 95.618C47.3724 95.618 47.1558 95.2294 47.1433 94.8591H46.3689C46.3863 95.6502 46.9541 96.1975 48.1891 96.1975Z" fill="#04AFEF" fill-opacity="0.4"/>
<path d="M80.8202 96.2197C81.9208 96.2197 82.5533 95.792 82.5533 95.0331C82.5533 94.3226 82.1524 93.9523 80.8626 93.7224C80.1828 93.6028 79.9338 93.4648 79.9338 93.0992V93.0946C79.9338 92.8094 80.1703 92.5795 80.7854 92.5795C81.5075 92.5795 81.7142 92.9244 81.7391 93.297H82.4886C82.4537 92.5358 81.9383 92 80.7679 92C79.6549 92 79.1345 92.4553 79.1345 93.0831C79.1345 93.7661 79.5428 94.0834 80.631 94.2858C81.4776 94.4536 81.749 94.5732 81.749 95.0331C81.749 95.4149 81.4651 95.6402 80.8277 95.6402C80.0035 95.6402 79.7869 95.2516 79.7744 94.8814H79C79.0174 95.6724 79.5852 96.2197 80.8202 96.2197Z" fill="#04AFEF" fill-opacity="0.4"/>
<path d="M52.4623 95.5674C51.6679 95.5674 51.2371 95.0822 51.2371 94.1417V94.0221C51.2371 93.0885 51.6679 92.6079 52.4623 92.6079C53.2541 92.6079 53.6923 93.0885 53.6923 94.0221V94.1417C53.6923 95.0822 53.2541 95.5674 52.4623 95.5674ZM50.4329 94.121C50.4329 95.3558 51.023 96.0595 52.1186 96.1814V96.8966H52.888V96.1699C53.9289 96.0273 54.4916 95.3283 54.4916 94.121V94.0451C54.4916 92.6883 53.7745 91.9778 52.4623 91.9778C51.1475 91.9778 50.4329 92.6883 50.4329 94.0451V94.121Z" fill="#04AFEF" fill-opacity="0.4"/>
<path d="M57.022 96.1977C58.3193 96.1977 58.8746 95.6228 58.8746 94.4753V92.0562H58.0827V94.4592C58.0827 95.202 57.7142 95.5676 57.0295 95.5676C56.3297 95.5676 55.9637 95.202 55.9637 94.4592V92.0562H55.1719V94.4753C55.1719 95.6343 55.7321 96.1977 57.022 96.1977Z" fill="#04AFEF" fill-opacity="0.4"/>
<path d="M59.3413 96.1149H60.1929L60.5415 95.1744H62.424L62.7726 96.1149H63.6242L61.9982 92.0562H60.9623L59.3413 96.1149ZM60.7557 94.6018L61.3707 92.9346L61.4778 92.6241H61.4902L61.5948 92.9346L62.2098 94.6018H60.7557Z" fill="#04AFEF" fill-opacity="0.4"/>
<path d="M64.2104 96.1149H66.0157C67.4102 96.1149 68.0152 95.4158 68.0152 94.1051V94.0384C68.0152 92.7322 67.3878 92.0562 66.0083 92.0562H64.2104V96.1149ZM65.0023 95.5032V92.6678H65.8962C66.7652 92.6678 67.2159 93.045 67.2159 93.9947V94.1488C67.2159 95.1215 66.7652 95.5032 65.8962 95.5032H65.0023Z" fill="#04AFEF" fill-opacity="0.4"/>
<path d="M68.8131 96.1149H69.6049V94.6018H70.5063C71.0741 94.6018 71.2982 94.7719 71.3579 95.0939L71.4351 95.4871C71.4999 95.8136 71.5472 95.9953 71.5995 96.1149H72.4162C72.339 95.9723 72.2743 95.786 72.2319 95.5147L72.1672 95.1215C72.09 94.6455 71.8709 94.3603 71.4451 94.2683V94.2637C71.9854 94.1649 72.3216 93.8038 72.3216 93.2312V93.2243C72.3216 92.4701 71.8186 92.0562 70.7354 92.0562H68.8131V96.1149ZM69.6049 93.9947V92.6678H70.713C71.2683 92.6678 71.5223 92.8978 71.5223 93.2795V93.2956C71.5223 93.7923 71.1787 93.9947 70.6533 93.9947H69.6049Z" fill="#04AFEF" fill-opacity="0.4"/>
<path d="M73.1318 96.1149H73.9237V92.0562H73.1318V96.1149Z" fill="#04AFEF" fill-opacity="0.4"/>
<path d="M74.5161 96.1149H75.3677L75.7163 95.1744H77.5988L77.9474 96.1149H78.799L77.173 92.0562H76.1371L74.5161 96.1149ZM75.9305 94.6018L76.5455 92.9346L76.6526 92.6241H76.665L76.7696 92.9346L77.3846 94.6018H75.9305Z" fill="#04AFEF" fill-opacity="0.4"/>
<path d="M86.2614 96.3002H88.0666C89.4611 96.3002 90.0661 95.6011 90.0661 94.2904V94.2237C90.0661 92.9175 89.4387 92.2415 88.0592 92.2415H86.2614V96.3002ZM87.0532 95.6885V92.8531H87.9471C88.8161 92.8531 89.2668 93.2303 89.2668 94.18V94.3341C89.2668 95.3068 88.8161 95.6885 87.9471 95.6885H87.0532Z" fill="#04AFEF" fill-opacity="0.4"/>
<path d="M91.2615 96.3002H94.4039V95.6885H92.0533V94.5134H94.1425V93.9408H92.0533V92.8531H94.374V92.2415H91.2615V96.3002Z" fill="#04AFEF" fill-opacity="0.4"/>
<path d="M97.2615 96.3002H98.1131L98.4617 95.3597H100.344L100.693 96.3002H101.544L99.9184 92.2415H98.8825L97.2615 96.3002ZM98.6758 94.7871L99.2909 93.1199L99.3979 92.8094H99.4104L99.515 93.1199L100.13 94.7871H98.6758Z" fill="#04AFEF" fill-opacity="0.4"/>
<path d="M102.261 96.3002H105.202V95.6885H103.053V92.2415H102.261V96.3002Z" fill="#04AFEF" fill-opacity="0.4"/>
<path d="M108.112 96.383C109.409 96.383 109.964 95.8081 109.964 94.6606V92.2415H109.172V94.6445C109.172 95.3873 108.804 95.7529 108.119 95.7529C107.419 95.7529 107.053 95.3873 107.053 94.6445V92.2415H106.262V94.6606C106.262 95.8196 106.822 96.383 108.112 96.383Z" fill="#04AFEF" fill-opacity="0.4"/>
<path d="M111.261 96.3002H112.036V93.5729L112.031 93.2142H112.036L112.155 93.497L113.249 95.7161H113.923L115.019 93.497L115.143 93.2142H115.148L115.136 93.5729V96.3002H115.913V92.2415H114.877L113.699 94.6767L113.592 94.9457H113.587L113.48 94.6767L112.302 92.2415H111.261V96.3002Z" fill="#04AFEF" fill-opacity="0.4"/>
<path d="M117.261 96.3002H118.053V92.2415H117.261V96.3002Z" fill="#04AFEF" fill-opacity="0.4"/>
<path d="M119.101 96.3002H119.876V93.2464L120.03 93.4694L122.047 96.3002H122.966V92.2415H122.189V95.2884L122.037 95.0699L120.018 92.2415H119.101V96.3002Z" fill="#04AFEF" fill-opacity="0.4"/>
<path d="M124.261 96.3786H125.053V92.3198H124.261V96.3786Z" fill="#04AFEF" fill-opacity="0.4"/>
<path d="M127.889 96.4612C129.202 96.4612 129.919 95.7437 129.919 94.3847V94.3088C129.919 92.952 129.202 92.2415 127.889 92.2415C126.575 92.2415 125.86 92.952 125.86 94.3088V94.3847C125.86 95.7437 126.575 96.4612 127.889 96.4612ZM126.664 94.4053V94.2858C126.664 93.3521 127.095 92.8715 127.889 92.8715C128.681 92.8715 129.119 93.3521 129.119 94.2858V94.4053C129.119 95.3459 128.681 95.8311 127.889 95.8311C127.095 95.8311 126.664 95.3459 126.664 94.4053Z" fill="#04AFEF" fill-opacity="0.4"/>
<path d="M42.5623 95.8734H45.7047V95.2617H43.3541V94.0867H45.4432V93.5141H43.3541V92.4264H45.6748V91.8147H42.5623V95.8734Z" fill="#13256B"/>
<path d="M47.8202 96.2197C48.9208 96.2197 49.5533 95.792 49.5533 95.0331C49.5533 94.3226 49.1524 93.9523 47.8626 93.7224C47.1828 93.6028 46.9338 93.4648 46.9338 93.0992V93.0946C46.9338 92.8094 47.1703 92.5795 47.7854 92.5795C48.5075 92.5795 48.7142 92.9244 48.7391 93.297H49.4886C49.4537 92.5358 48.9383 92 47.7679 92C46.6549 92 46.1345 92.4553 46.1345 93.0831C46.1345 93.7661 46.5428 94.0834 47.631 94.2858C48.4776 94.4536 48.749 94.5732 48.749 95.0331C48.749 95.4149 48.4651 95.6402 47.8277 95.6402C47.0035 95.6402 46.7869 95.2516 46.7744 94.8814H46C46.0174 95.6724 46.5852 96.2197 47.8202 96.2197Z" fill="#13256B"/>
<path d="M80.6136 96.2197C81.5893 96.2197 82.15 95.792 82.15 95.0331C82.15 94.3226 81.7946 93.9523 80.6512 93.7224C80.0485 93.6028 79.8278 93.4648 79.8278 93.0992V93.0946C79.8278 92.8094 80.0375 92.5795 80.5827 92.5795C81.2229 92.5795 81.4061 92.9244 81.4282 93.297H82.0926C82.0617 92.5358 81.6048 92 80.5673 92C79.5806 92 79.1192 92.4553 79.1192 93.0831C79.1192 93.7661 79.4812 94.0834 80.4459 94.2858C81.1964 94.4536 81.437 94.5732 81.437 95.0331C81.437 95.4149 81.1854 95.6402 80.6203 95.6402C79.8896 95.6402 79.6975 95.2516 79.6865 94.8814H79C79.0155 95.6724 79.5187 96.2197 80.6136 96.2197Z" fill="#13256B"/>
<path d="M52.2008 95.326C51.4065 95.326 50.9757 94.8407 50.9757 93.9002V93.7806C50.9757 92.847 51.4065 92.3664 52.2008 92.3664C52.9926 92.3664 53.4309 92.847 53.4309 93.7806V93.9002C53.4309 94.8407 52.9926 95.326 52.2008 95.326ZM50.1714 93.8795C50.1714 95.1144 50.7615 95.8181 51.8571 95.9399V96.6551H52.6266V95.9284C53.6674 95.7859 54.2302 95.0868 54.2302 93.8795V93.8036C54.2302 92.4469 53.513 91.7363 52.2008 91.7363C50.886 91.7363 50.1714 92.4469 50.1714 93.8036V93.8795Z" fill="#13256B"/>
<path d="M56.7606 95.9562C58.0579 95.9562 58.6132 95.3813 58.6132 94.2338V91.8147H57.8214V94.2177C57.8214 94.9605 57.4529 95.3261 56.7681 95.3261C56.0684 95.3261 55.7024 94.9605 55.7024 94.2177V91.8147H54.9105V94.2338C54.9105 95.3928 55.4708 95.9562 56.7606 95.9562Z" fill="#13256B"/>
<path d="M59.0798 95.8734H59.9314L60.28 94.9329H62.1625L62.5111 95.8734H63.3627L61.7367 91.8147H60.7009L59.0798 95.8734ZM60.4942 94.3603L61.1092 92.6931L61.2163 92.3827H61.2287L61.3333 92.6931L61.9484 94.3603H60.4942Z" fill="#13256B"/>
<path d="M63.949 95.8734H65.7543C67.1487 95.8734 67.7538 95.1744 67.7538 93.8636V93.7969C67.7538 92.4908 67.1263 91.8147 65.7468 91.8147H63.949V95.8734ZM64.7408 95.2617V92.4264H65.6347C66.5038 92.4264 66.9545 92.8035 66.9545 93.7532V93.9073C66.9545 94.88 66.5038 95.2617 65.6347 95.2617H64.7408Z" fill="#13256B"/>
<path d="M68.5516 95.8734H69.3435V94.3603H70.2449C70.8126 94.3603 71.0367 94.5305 71.0965 94.8524L71.1737 95.2456C71.2384 95.5722 71.2857 95.7539 71.338 95.8734H72.1547C72.0775 95.7309 72.0128 95.5446 71.9705 95.2732L71.9057 94.88C71.8285 94.404 71.6094 94.1189 71.1836 94.0269V94.0223C71.724 93.9234 72.0601 93.5624 72.0601 92.9898V92.9829C72.0601 92.2286 71.5571 91.8147 70.474 91.8147H68.5516V95.8734ZM69.3435 93.7532V92.4264H70.4515C71.0068 92.4264 71.2608 92.6563 71.2608 93.0381V93.0542C71.2608 93.5509 70.9172 93.7532 70.3918 93.7532H69.3435Z" fill="#13256B"/>
<path d="M72.8704 95.8734H73.6622V91.8147H72.8704V95.8734Z" fill="#13256B"/>
<path d="M74.2546 95.8734H75.1062L75.4548 94.9329H77.3373L77.6859 95.8734H78.5375L76.9115 91.8147H75.8757L74.2546 95.8734ZM75.669 94.3603L76.284 92.6931L76.3911 92.3827H76.4036L76.5081 92.6931L77.1232 94.3603H75.669Z" fill="#13256B"/>
<path d="M86 96.0587H87.8053C89.1997 96.0587 89.8048 95.3597 89.8048 94.0489V93.9822C89.8048 92.6761 89.1773 92 87.7978 92H86V96.0587ZM86.7918 95.447V92.6117H87.6858C88.5548 92.6117 89.0055 92.9888 89.0055 93.9385V94.0926C89.0055 95.0653 88.5548 95.447 87.6858 95.447H86.7918Z" fill="#13256B"/>
<path d="M91 96.0587H94.1424V95.447H91.7918V94.272H93.881V93.6994H91.7918V92.6117H94.1126V92H91V96.0587Z" fill="#13256B"/>
<path d="M97 96.0587H97.8516L98.2002 95.1182H100.083L100.431 96.0587H101.283L99.6569 92H98.621L97 96.0587ZM98.4143 94.5456L99.0294 92.8784L99.1365 92.568H99.1489L99.2535 92.8784L99.8685 94.5456H98.4143Z" fill="#13256B"/>
<path d="M102 96.0587H104.941V95.447H102.792V92H102V96.0587Z" fill="#13256B"/>
<path d="M107.85 96.1415C109.147 96.1415 109.703 95.5666 109.703 94.4191V92H108.911V94.403C108.911 95.1458 108.542 95.5114 107.858 95.5114C107.158 95.5114 106.792 95.1458 106.792 94.403V92H106V94.4191C106 95.5781 106.56 96.1415 107.85 96.1415Z" fill="#13256B"/>
<path d="M111 96.0587H111.774V93.3314L111.769 92.9727H111.774L111.894 93.2556L112.987 95.4746H113.662L114.757 93.2556L114.882 92.9727H114.887L114.875 93.3314V96.0587H115.651V92H114.616L113.438 94.4352L113.331 94.7043H113.326L113.219 94.4352L112.041 92H111V96.0587Z" fill="#13256B"/>
<path d="M117 96.0587H117.792V92H117V96.0587Z" fill="#13256B"/>
<path d="M118.84 96.0587H119.614V93.0049L119.769 93.228L121.786 96.0587H122.704V92H121.928V95.0469L121.776 94.8285L119.756 92H118.84V96.0587Z" fill="#13256B"/>
<path d="M124 96.1371H124.792V92.0784H124V96.1371Z" fill="#13256B"/>
<path d="M127.628 96.2197C128.94 96.2197 129.657 95.5022 129.657 94.1432V94.0673C129.657 92.7106 128.94 92 127.628 92C126.313 92 125.598 92.7106 125.598 94.0673V94.1432C125.598 95.5022 126.313 96.2197 127.628 96.2197ZM126.403 94.1639V94.0443C126.403 93.1107 126.833 92.6301 127.628 92.6301C128.42 92.6301 128.858 93.1107 128.858 94.0443V94.1639C128.858 95.1044 128.42 95.5896 127.628 95.5896C126.833 95.5896 126.403 95.1044 126.403 94.1639Z" fill="#13256B"/>
</svg>
